<?xml version="1.0" encoding="UTF-8"?>
<svg height="128px" viewBox="0 0 128 128" width="128px" xmlns="http://www.w3.org/2000/svg" xmlns:xlink="http://www.w3.org/1999/xlink">
    <linearGradient id="a" gradientUnits="userSpaceOnUse" x1="2" x2="112" y1="74" y2="74">
        <stop offset="0" stop-color="#ef939a"/>
        <stop offset="0.0456911" stop-color="#c01c28"/>
        <stop offset="0.436364" stop-color="#c01c28"/>
        <stop offset="0.545455" stop-color="#eb7981"/>
        <stop offset="0.618182" stop-color="#c01c28"/>
        <stop offset="0.936003" stop-color="#c01c28"/>
        <stop offset="1" stop-color="#650e14"/>
    </linearGradient>
    <linearGradient id="b" gradientUnits="userSpaceOnUse" x1="68" x2="73.75" y1="125.75" y2="64">
        <stop offset="0" stop-color="#ff7800"/>
        <stop offset="1" stop-color="#f66151"/>
    </linearGradient>
    <radialGradient id="c" cx="114.887283" cy="211.319916" gradientTransform="matrix(1.059669 3.416391 -0.790565 0.245211 159.825817 -432.298782)" gradientUnits="userSpaceOnUse" r="17.152082">
        <stop offset="0" stop-color="#9a9996"/>
        <stop offset="1" stop-color="#5e5c64" stop-opacity="0"/>
    </radialGradient>
    <path d="m 106.507812 15.1875 c -2.386718 2.113281 -4.796874 5.085938 -7.253906 7.179688 c -1.230468 1.046874 -2.453125 1.855468 -3.585937 2.265624 c -1.136719 0.40625 -2.136719 0.457032 -3.257813 0.027344 c -0.773437 -0.292968 -1.640625 0.09375 -1.9375 0.867188 c -0.292968 0.773437 0.09375 1.640625 0.867188 1.933594 c 1.820312 0.695312 3.6875 0.585937 5.34375 -0.007813 c 1.652344 -0.59375 3.128906 -1.625 4.515625 -2.804687 c 2.769531 -2.355469 5.230469 -5.382813 7.292969 -7.214844 c 0.621093 -0.546875 0.679687 -1.496094 0.132812 -2.117188 c -0.550781 -0.617187 -1.5 -0.675781 -2.117188 -0.128906 z m 0 0" fill="#434248"/>
    <path d="m 108.382812 17.25 c -1.96875 1.746094 -5.425781 3.472656 -8.449218 5.632812 c -3.023438 2.15625 -5.828125 5.027344 -5.683594 9.105469 c 0.015625 0.398438 0.183594 0.777344 0.476562 1.046875 c 0.292969 0.273438 0.679688 0.417969 1.074219 0.402344 c 0.398438 -0.015625 0.777344 -0.183594 1.046875 -0.476562 c 0.273438 -0.292969 0.417969 -0.679688 0.402344 -1.074219 c -0.09375 -2.675781 1.691406 -4.613281 4.425781 -6.5625 s 6.210938 -3.625 8.691407 -5.824219 c 0.621093 -0.550781 0.679687 -1.5 0.132812 -2.117188 c -0.550781 -0.621093 -1.5 -0.679687 -2.117188 -0.132812 z m 0 0" fill="#434248"/>
    <path d="m 103.15625 20.558594 c -4.097656 -4.097656 -9.648438 -6.414063 -15.445312 -6.445313 l -29.988282 -0.164062 c -6.464844 -0.03125 -12.671875 2.519531 -17.246094 7.089843 l -36.273437 36.277344 c -3.945313 3.945313 -3.945313 10.339844 0 14.285156 l 47.949219 47.945313 c 3.945312 3.949219 10.339844 3.949219 14.285156 0.003906 l 36.273438 -36.273437 c 4.570312 -4.574219 7.121093 -10.785156 7.082031 -17.25 l -0.179688 -30.027344 c -0.035156 -5.796875 -2.355469 -11.34375 -6.457031 -15.441406 z m -6.578125 6.605468 c 3.234375 3.230469 3.234375 8.472657 0 11.707032 c -3.230469 3.230468 -8.472656 3.230468 -11.703125 0 c -3.234375 -3.234375 -3.234375 -8.476563 0 -11.707032 c 3.230469 -3.234374 8.472656 -3.234374 11.703125 0 z m 0 0" fill="url(#a)"/>
    <path d="m 103.15625 18.558594 c -4.097656 -4.097656 -9.648438 -6.414063 -15.445312 -6.445313 l -29.988282 -0.164062 c -6.464844 -0.03125 -12.671875 2.519531 -17.246094 7.089843 l -36.273437 36.277344 c -3.945313 3.945313 -3.945313 10.339844 0 14.285156 l 47.949219 47.945313 c 3.945312 3.949219 10.339844 3.949219 14.285156 0.003906 l 36.273438 -36.273437 c 4.570312 -4.574219 7.121093 -10.785156 7.082031 -17.25 l -0.179688 -30.027344 c -0.035156 -5.796875 -2.355469 -11.34375 -6.457031 -15.441406 z m -6.578125 6.605468 c 3.234375 3.230469 3.234375 8.472657 0 11.707032 c -3.230469 3.230468 -8.472656 3.230468 -11.703125 0 c -3.234375 -3.234375 -3.234375 -8.476563 0 -11.707032 c 3.230469 -3.234374 8.472656 -3.234374 11.703125 0 z m 0 0" fill="url(#b)"/>
    <path d="m 103.839844 11.136719 c -2.414063 0.070312 -4.796875 1.226562 -6.28125 3.445312 l -7.054688 10.585938 c -0.460937 0.6875 -0.273437 1.621093 0.414063 2.082031 c 0.691406 0.457031 1.621093 0.269531 2.082031 -0.417969 l 7.054688 -10.582031 c 1.867187 -2.800781 5.828124 -2.910156 7.84375 -0.21875 l 1.304687 1.738281 c 2.128906 2.835938 1.007813 6.832031 -2.285156 8.148438 l -11.722657 4.6875 c -0.769531 0.308593 -1.144531 1.183593 -0.835937 1.949219 c 0.308594 0.769531 1.179687 1.144531 1.949219 0.839843 l 11.722656 -4.691406 c 5.054688 -2.023437 6.839844 -8.378906 3.570312 -12.734375 l -1.300781 -1.738281 c -1.601562 -2.136719 -4.046875 -3.160157 -6.460937 -3.09375 z m 0 0" fill="#5e5c64"/>
    <path d="m 103.867188 11.414062 c -2.101563 0.058594 -4.175782 1.070313 -5.476563 3.015626 l -7.054687 10.585937 c -0.152344 0.230469 -0.089844 0.539063 0.136718 0.691406 c 0.230469 0.15625 0.542969 0.09375 0.695313 -0.136719 l 7.054687 -10.585937 c 2.234375 -3.34375 7.0625 -3.476563 9.476563 -0.261719 l 1.304687 1.738282 c 2.507813 3.34375 1.167969 8.125 -2.714844 9.675781 l -11.722656 4.691406 c -0.125 0.050781 -0.222656 0.144531 -0.273437 0.265625 c -0.054688 0.125 -0.054688 0.261719 -0.007813 0.382812 c 0.050782 0.125 0.148438 0.222657 0.269532 0.277344 c 0.121093 0.050782 0.257812 0.054688 0.382812 0.003906 l 11.722656 -4.691406 c 4.46875 -1.785156 6.03125 -7.355468 3.144532 -11.207031 l -1.304688 -1.738281 c -1.402344 -1.871094 -3.53125 -2.765625 -5.632812 -2.707032 z m 0 0" fill="#9a9996"/>
    <path d="m 115.910156 5.660156 c -1.859375 0.097656 -3.675781 1.015625 -4.808594 2.714844 l -4.527343 6.792969 c -0.460938 0.6875 -0.273438 1.621093 0.414062 2.082031 c 0.476563 0.3125 1.089844 0.332031 1.582031 0.046875 c -0.25 0.414063 -0.285156 0.925781 -0.089843 1.371094 c 0.371093 0.742187 1.269531 1.042969 2.011719 0.675781 l 5.238281 -2.621094 c 1.601562 -0.800781 2.871093 -0.203125 3.671875 0.882813 c 0.800781 1.082031 1 2.472656 -0.238282 3.769531 l -6.835937 7.164062 c -1.078125 1.085938 -2.121094 2.203126 -3.132813 3.347657 c 0.269532 1.355469 0.40625 2.730469 0.414063 4.113281 v 0.019531 c 1.53125 -1.855469 3.148437 -3.652343 4.851563 -5.375 l 0.011718 -0.007812 l 6.867188 -7.191407 c 2.195312 -2.300781 2.019531 -5.539062 0.480468 -7.621093 c -1.542968 -2.085938 -4.582031 -3.207031 -7.429687 -1.785157 l -5.1875 2.59375 l 4.398437 -6.589843 c 0.597657 -0.902344 1.519532 -1.382813 2.46875 -1.4375 c 0.945313 -0.046875 1.914063 0.332031 2.605469 1.164062 l 1.988281 2.378907 c 2.199219 2.644531 2.980469 6.191406 2.09375 9.515624 l -2.636718 9.886719 c -2.523438 9.46875 -2.601563 19.425781 -0.226563 28.929688 l 1.597657 6.382812 c 2.355468 9.417969 -4.15625 18.679688 -13.820313 19.644531 c -2.53125 0.253907 -4.929687 -0.191406 -7.027344 -1.164062 c -0.003906 0 -0.003906 0.003906 -0.003906 0 l -2.207031 2.207031 c 2.789062 1.535157 6.0625 2.289063 9.539062 1.941407 c 11.425782 -1.144532 19.214844 -12.214844 16.429688 -23.355469 l -1.59375 -6.382813 c -2.253906 -9.011718 -2.179688 -18.449218 0.210937 -27.429687 l 2.640625 -9.886719 c 1.136719 -4.265625 0.132813 -8.816406 -2.695312 -12.207031 l -1.980469 -2.378907 c -1.308594 -1.570312 -3.214844 -2.289062 -5.074219 -2.191406 z m 0 0" fill="#5e5c64"/>
    <path d="m 115.964844 5.933594 c -1.558594 0.085937 -3.074219 0.859375 -4.03125 2.292968 l -4.527344 6.789063 c -0.152344 0.230469 -0.089844 0.539063 0.140625 0.691406 c 0.226563 0.15625 0.539063 0.09375 0.691406 -0.136719 l 4.527344 -6.792968 c 1.554687 -2.332032 4.886719 -2.507813 6.679687 -0.355469 l 1.984376 2.378906 c 2.410156 2.894531 3.265624 6.773438 2.296874 10.414063 l -2.636718 9.886718 c -2.484375 9.304688 -2.558594 19.085938 -0.222656 28.429688 l 1.597656 6.382812 c 2.496094 9.992188 -4.441406 19.855469 -14.691406 20.882813 c -3.199219 0.316406 -6.199219 -0.410156 -8.714844 -1.871094 l -0.722656 0.726563 c 2.738281 1.652344 6.027343 2.488281 9.535156 2.136718 c 10.835937 -1.082031 18.203125 -11.550781 15.5625 -22.117187 l -1.597656 -6.382813 c -2.292969 -9.175781 -2.21875 -18.785156 0.21875 -27.929687 l 2.636718 -9.886719 c 1.054688 -3.953125 0.125 -8.167968 -2.496094 -11.308594 l -1.980468 -2.378906 c -1.101563 -1.324218 -2.695313 -1.933594 -4.25 -1.851562 z m 1.121094 7.746094 c -0.726563 0 -1.488282 0.167968 -2.246094 0.546874 l -5.238282 2.621094 c -0.246093 0.121094 -0.347656 0.421875 -0.222656 0.667969 c 0.121094 0.246094 0.421875 0.347656 0.667969 0.222656 l 5.238281 -2.617187 c 2.015625 -1.007813 3.875 -0.238282 4.921875 1.179687 c 1.050781 1.421875 1.238281 3.425781 -0.316406 5.054688 l -6.855469 7.183593 c -1.207031 1.222657 -2.375 2.480469 -3.496094 3.769532 c 0.039063 0.484375 0.0625 0.96875 0.070313 1.449218 c 1.320313 -1.554687 2.699219 -3.0625 4.140625 -4.523437 h 0.003906 l 6.859375 -7.1875 c 1.875 -1.964844 1.695313 -4.585937 0.402344 -6.339844 c -0.890625 -1.203125 -2.328125 -2.023437 -3.929687 -2.027343 z m 0 0" fill="url(#c)"/>
    <path d="m 47.050781 72.140625 c -1.527343 1.527344 -3.226562 2.5625 -5.089843 3.097656 c -1.882813 0.523438 -3.785157 0.515625 -5.707032 -0.019531 c -1.9375 -0.554688 -3.757812 -1.675781 -5.453125 -3.375 l -0.636719 -0.636719 c -1.710937 -1.710937 -2.835937 -3.527343 -3.371093 -5.449219 c -0.554688 -1.9375 -0.566407 -3.847656 -0.042969 -5.730468 c 0.523438 -1.878906 1.546875 -3.582032 3.074219 -5.109375 c 1.542969 -1.542969 3.253906 -2.574219 5.132812 -3.097657 c 1.882813 -0.523437 3.792969 -0.511718 5.730469 0.042969 c 1.9375 0.523438 3.761719 1.640625 5.472656 3.351563 l 0.636719 0.636718 c 1.695313 1.695313 2.8125 3.519532 3.351563 5.472657 c 0.535156 1.921875 0.542968 3.824219 0.019531 5.703125 c -0.535157 1.867187 -1.578125 3.574218 -3.117188 5.113281 z m -4.835937 -4.835937 c 0.71875 -0.722657 1.03125 -1.570313 0.933594 -2.546876 c -0.101563 -1.003906 -0.75 -2.105468 -1.953126 -3.308593 l -0.636718 -0.636719 c -1.214844 -1.214844 -2.332032 -1.878906 -3.351563 -1.992188 c -1.003906 -0.128906 -1.867187 0.167969 -2.585937 0.890626 c -0.707032 0.707031 -1 1.5625 -0.871094 2.566406 c 0.125 1.003906 0.796875 2.113281 2.015625 3.332031 l 0.636719 0.636719 c 1.199218 1.199218 2.296875 1.859375 3.285156 1.972656 c 0.976562 0.097656 1.820312 -0.207031 2.527344 -0.914062 z m 43.1875 -2.714844 c -1.527344 1.527344 -3.222656 2.558594 -5.089844 3.097656 c -1.882812 0.523438 -3.785156 0.515625 -5.707031 -0.023438 c -1.9375 -0.550781 -3.753907 -1.675781 -5.453125 -3.371093 l -0.632813 -0.636719 c -1.714843 -1.710938 -2.835937 -3.527344 -3.375 -5.453125 c -0.550781 -1.9375 -0.566406 -3.84375 -0.042969 -5.726563 c 0.523438 -1.878906 1.550782 -3.585937 3.078126 -5.113281 c 1.539062 -1.539062 3.25 -2.574219 5.132812 -3.097656 c 1.878906 -0.519531 3.789062 -0.507813 5.726562 0.042969 c 1.9375 0.523437 3.761719 1.640625 5.472657 3.351562 l 0.636719 0.636719 c 1.699218 1.699219 2.816406 3.523437 3.351562 5.472656 c 0.539062 1.925781 0.542969 3.828125 0.023438 5.707031 c -0.539063 1.867188 -1.578126 3.570313 -3.121094 5.113282 z m -4.835938 -4.835938 c 0.722656 -0.722656 1.03125 -1.570312 0.933594 -2.546875 c -0.097656 -1.003906 -0.75 -2.105469 -1.953125 -3.308593 l -0.632813 -0.636719 c -1.21875 -1.214844 -2.335937 -1.878907 -3.355468 -1.992188 c -1.003906 -0.128906 -1.863282 0.167969 -2.585938 0.890625 c -0.707031 0.707032 -0.996094 1.5625 -0.871094 2.566406 c 0.128907 1.003907 0.800782 2.113282 2.015626 3.328126 l 0.636718 0.636718 c 1.203125 1.203125 2.296875 1.859375 3.289063 1.972656 c 0.976562 0.101563 1.816406 -0.203124 2.523437 -0.910156 z m -20.703125 29.359375 l -9.886719 -53.332031 l 5.429688 -5.429688 l 9.886719 53.328126 z m 0 0" fill="#d42539"/>
    <path d="m 47.800781 74.390625 c -1.527343 1.527344 -3.226562 2.5625 -5.089843 3.097656 c -1.882813 0.523438 -3.785157 0.515625 -5.707032 -0.019531 c -1.9375 -0.554688 -3.757812 -1.675781 -5.453125 -3.375 l -0.636719 -0.636719 c -1.710937 -1.710937 -2.835937 -3.527343 -3.371093 -5.449219 c -0.554688 -1.9375 -0.566407 -3.847656 -0.042969 -5.730468 c 0.523438 -1.878906 1.546875 -3.582032 3.074219 -5.109375 c 1.542969 -1.542969 3.253906 -2.574219 5.132812 -3.097657 c 1.882813 -0.523437 3.792969 -0.511718 5.730469 0.042969 c 1.9375 0.523438 3.761719 1.640625 5.472656 3.351563 l 0.636719 0.636718 c 1.695313 1.695313 2.8125 3.519532 3.351563 5.472657 c 0.535156 1.921875 0.542968 3.824219 0.019531 5.703125 c -0.535157 1.867187 -1.578125 3.574218 -3.117188 5.113281 z m -4.835937 -4.835937 c 0.71875 -0.722657 1.03125 -1.570313 0.933594 -2.546876 c -0.101563 -1.003906 -0.75 -2.105468 -1.953126 -3.308593 l -0.636718 -0.636719 c -1.214844 -1.214844 -2.332032 -1.878906 -3.351563 -1.992188 c -1.003906 -0.128906 -1.867187 0.167969 -2.585937 0.890626 c -0.707032 0.707031 -1 1.5625 -0.871094 2.566406 c 0.125 1.003906 0.796875 2.113281 2.015625 3.332031 l 0.636719 0.636719 c 1.199218 1.199218 2.296875 1.859375 3.285156 1.972656 c 0.976562 0.097656 1.820312 -0.207031 2.527344 -0.914062 z m 43.1875 -2.714844 c -1.527344 1.527344 -3.222656 2.558594 -5.089844 3.097656 c -1.882812 0.523438 -3.785156 0.515625 -5.707031 -0.023438 c -1.9375 -0.550781 -3.753907 -1.675781 -5.453125 -3.371093 l -0.632813 -0.636719 c -1.714843 -1.710938 -2.835937 -3.527344 -3.375 -5.453125 c -0.550781 -1.9375 -0.566406 -3.84375 -0.042969 -5.726563 c 0.523438 -1.878906 1.550782 -3.585937 3.078126 -5.113281 c 1.539062 -1.539062 3.25 -2.574219 5.132812 -3.097656 c 1.878906 -0.519531 3.789062 -0.507813 5.726562 0.042969 c 1.9375 0.523437 3.761719 1.640625 5.472657 3.351562 l 0.636719 0.636719 c 1.699218 1.699219 2.816406 3.523437 3.351562 5.472656 c 0.539062 1.925781 0.542969 3.828125 0.023438 5.707031 c -0.539063 1.867188 -1.578126 3.570313 -3.121094 5.113282 z m -4.835938 -4.835938 c 0.722656 -0.722656 1.03125 -1.570312 0.933594 -2.546875 c -0.097656 -1.003906 -0.75 -2.105469 -1.953125 -3.308593 l -0.632813 -0.636719 c -1.21875 -1.214844 -2.335937 -1.878907 -3.355468 -1.992188 c -1.003906 -0.128906 -1.863282 0.167969 -2.585938 0.890625 c -0.707031 0.707032 -0.996094 1.5625 -0.871094 2.566406 c 0.128907 1.003907 0.800782 2.113282 2.015626 3.328126 l 0.636718 0.636718 c 1.203125 1.203125 2.296875 1.859375 3.289063 1.972656 c 0.976562 0.101563 1.816406 -0.203124 2.523437 -0.910156 z m -20.703125 29.359375 l -9.886719 -53.332031 l 5.429688 -5.429688 l 9.886719 53.328126 z m 0 0" fill="#ffbe6f"/>
</svg>