<?xml version="1.0" encoding="UTF-8" standalone="no"?>
<!-- Created with Inkscape (http://www.inkscape.org/) -->

<svg
   width="0.6697244in"
   height="0.2190654in"
   viewBox="0 0 17.011 5.5642611"
   version="1.1"
   id="svg1"
   xml:space="preserve"
   sodipodi:docname="ogc_white.svg"
   inkscape:version="1.4.3 (0d15f75042, 2025-12-25)"
   xmlns:inkscape="http://www.inkscape.org/namespaces/inkscape"
   xmlns:sodipodi="http://sodipodi.sourceforge.net/DTD/sodipodi-0.dtd"
   xmlns="http://www.w3.org/2000/svg"
   xmlns:svg="http://www.w3.org/2000/svg"><sodipodi:namedview
     id="namedview1"
     pagecolor="#ffffff"
     bordercolor="#000000"
     borderopacity="0.25"
     inkscape:showpageshadow="2"
     inkscape:pageopacity="0.0"
     inkscape:pagecheckerboard="0"
     inkscape:deskcolor="#d1d1d1"
     inkscape:document-units="mm"
     inkscape:zoom="8.3170034"
     inkscape:cx="34.928446"
     inkscape:cy="28.435723"
     inkscape:window-width="3440"
     inkscape:window-height="1371"
     inkscape:window-x="0"
     inkscape:window-y="0"
     inkscape:window-maximized="1"
     inkscape:current-layer="layer1" /><defs
     id="defs1" /><g
     inkscape:label="Layer 1"
     inkscape:groupmode="layer"
     id="layer1"
     transform="translate(-96.496501,-143.26488)"><path
       style="font-weight:bold;font-size:6.35px;font-family:Inter;-inkscape-font-specification:'Inter Bold';text-align:center;letter-spacing:0.169333px;word-spacing:0px;text-anchor:middle;stroke:#5835ce;stroke-width:0;stroke-linecap:round;stroke-linejoin:round;fill:#ffffff"
       d="m 98.673112,148.03358 q -0.620117,0 -1.11311,-0.28835 -0.492993,-0.29146 -0.778247,-0.82476 -0.285254,-0.5364 -0.285254,-1.26814 0,-0.73794 0.285254,-1.27124 0.285254,-0.5364 0.778247,-0.82475 0.492993,-0.29146 1.11311,-0.29146 0.623218,0 1.116211,0.29146 0.492997,0.28835 0.778247,0.82475 0.28525,0.5333 0.28525,1.27124 0,0.73484 -0.28525,1.26814 -0.28525,0.5333 -0.778247,0.82476 -0.492993,0.28835 -1.116211,0.28835 z m 0,-0.84336 q 0.356568,0 0.63252,-0.17983 0.275952,-0.17984 0.430981,-0.524 0.15503,-0.34417 0.15503,-0.83406 0,-0.49299 -0.15503,-0.83716 -0.155029,-0.34726 -0.430981,-0.5271 -0.275952,-0.17983 -0.63252,-0.17983 -0.353466,0 -0.629418,0.17983 -0.272852,0.17984 -0.430982,0.5271 -0.155029,0.34417 -0.155029,0.83716 0,0.48989 0.155029,0.83406 0.15813,0.34416 0.430982,0.524 0.275952,0.17983 0.629418,0.17983 z m 4.938038,0.84336 q -0.65423,0 -1.15032,-0.29765 -0.49299,-0.29766 -0.77205,-0.83406 -0.27595,-0.5364 -0.27595,-1.24954 0,-0.73794 0.28525,-1.27434 0.28526,-0.5364 0.78135,-0.82476 0.4961,-0.28835 1.11621,-0.28835 0.39688,0 0.74724,0.11782 0.35037,0.11472 0.62012,0.33177 0.27285,0.21394 0.44649,0.51159 0.17363,0.29766 0.21704,0.66043 h -0.96739 q -0.0403,-0.17674 -0.12712,-0.31936 -0.0868,-0.14573 -0.22324,-0.24805 -0.13333,-0.10232 -0.30696,-0.15503 -0.17053,-0.0558 -0.37827,-0.0558 -0.38757,0 -0.66973,0.18914 -0.27905,0.18603 -0.43098,0.5333 -0.14883,0.34416 -0.14883,0.82165 0,0.47439 0.15193,0.81856 0.15193,0.34416 0.43408,0.5333 0.28216,0.18603 0.67593,0.18603 0.32246,0 0.56741,-0.12092 0.24494,-0.12402 0.38137,-0.34417 0.13953,-0.22324 0.13953,-0.51469 l 0.22634,0.0186 h -1.23403 v -0.72554 h 1.94096 v 0.58911 q 0,0.57361 -0.26355,1.0108 -0.26045,0.43718 -0.72243,0.68523 -0.46199,0.24494 -1.0604,0.24494 z m 4.83881,0 q -0.63252,0 -1.13171,-0.28835 -0.4961,-0.29146 -0.78135,-0.82476 -0.28215,-0.5364 -0.28215,-1.26814 0,-0.73794 0.28215,-1.27434 0.28525,-0.5364 0.78135,-0.82476 0.49919,-0.28835 1.13171,-0.28835 0.40618,0 0.75344,0.12092 0.34727,0.12093 0.61392,0.34417 0.26975,0.22324 0.44028,0.5364 0.17054,0.31316 0.22635,0.70073 h -0.96429 q -0.0403,-0.20464 -0.13332,-0.36277 -0.093,-0.16123 -0.22944,-0.26975 -0.13643,-0.11162 -0.31316,-0.16743 -0.17364,-0.0589 -0.38138,-0.0589 -0.39377,0 -0.67282,0.18914 -0.27595,0.18913 -0.42478,0.5364 -0.14883,0.34416 -0.14883,0.81855 0,0.47129 0.14573,0.81546 0.14882,0.34416 0.42788,0.5333 0.27905,0.18913 0.67282,0.18913 0.20774,0 0.38138,-0.0558 0.17363,-0.0558 0.31006,-0.16743 0.13642,-0.11162 0.22944,-0.26975 0.093,-0.15813 0.13953,-0.35967 h 0.96118 q -0.0558,0.38447 -0.22635,0.69763 -0.17053,0.31316 -0.44028,0.5364 -0.26975,0.22325 -0.61702,0.34417 -0.34416,0.11782 -0.75034,0.11782 z"
       id="text1"
       aria-label="OGC" /><path
       d="m 113.50775,148.12221 v 0.70693 h -3.01687 v -0.70693 z"
       id="text2"
       style="font-weight:bold;font-size:6.35px;font-family:Inter;-inkscape-font-specification:'Inter Bold';text-align:center;letter-spacing:0.169333px;word-spacing:0px;text-anchor:middle;fill:#00f2ff;stroke:#5835ce;stroke-width:0;stroke-linecap:round;stroke-linejoin:round"
       aria-label="_" /></g></svg>
